<svg width="2668" height="1734" xmlns="http://www.w3.org/2000/svg" xmlns:xlink="http://www.w3.org/1999/xlink" xml:space="preserve" overflow="hidden"><g transform="translate(-805 -494)"><path d="M1009 1237.5C1009 924.631 1262.63 671 1575.5 671 1888.37 671 2142 924.631 2142 1237.5 2142 1550.37 1888.37 1804 1575.5 1804 1262.63 1804 1009 1550.37 1009 1237.5Z" stroke="#7F7F7F" stroke-width="160.417" stroke-miterlimit="8" fill="#FFFFFF" fill-rule="evenodd"/><text fill="#7F7F7F" font-family="Arial,Arial_MSFontService,sans-serif" font-weight="700" font-size="825" transform="matrix(1 0 0 1 1300.68 1544)">P</text><path d="M2021 1237.5C2021 924.631 2274.85 671 2588 671 2901.15 671 3155 924.631 3155 1237.5 3155 1550.37 2901.15 1804 2588 1804 2274.85 1804 2021 1550.37 2021 1237.5Z" stroke="#7F7F7F" stroke-width="160.417" stroke-miterlimit="8" fill="#7F7F7F" fill-rule="evenodd"/><text fill="#FFFFFF" font-family="Arial,Arial_MSFontService,sans-serif" font-weight="700" font-size="825" transform="matrix(1 0 0 1 2198.64 1544)">W</text></g></svg>